<svg width="1240" height="3012" viewBox="0 0 1240 3012" fill="none" xmlns="http://www.w3.org/2000/svg">
<path d="M800 78C800 44.8629 826.863 18 860 18H1040C1073.14 18 1100 44.8629 1100 78V78H800V78Z" fill="#8183B5"/>
<path d="M542 78C542 44.8629 568.863 18 602 18H782C815.137 18 842 44.8629 842 78V78H542V78Z" fill="#9FA2F0"/>
<path d="M284 78C284 44.8629 310.863 18 344 18H524C557.137 18 584 44.8629 584 78V78H284V78Z" fill="#C7C8FF"/>
<path d="M0 78H1190C1217.61 78 1240 100.386 1240 128V3808H0V78Z" fill="#F3D489"/>
<path d="M0 60C0 26.8629 26.8629 0 60 0H269C302.137 0 329 26.8629 329 60V78H0V60Z" fill="#F3D489"/>
<path d="M70.272 64V61.696C69.28 63.36 67.104 64.32 65.024 64.32C60.928 64.32 57.44 61.248 57.44 56.512C57.44 51.744 60.928 48.736 65.024 48.736C67.104 48.736 69.248 49.6 70.272 51.296V49.056H73.152V64H70.272ZM70.24 56.48C70.24 53.28 67.712 51.584 65.28 51.584C62.592 51.584 60.416 53.536 60.416 56.48C60.416 59.424 62.592 61.472 65.28 61.472C67.936 61.472 70.24 59.648 70.24 56.48ZM78.0258 40.928H80.9378V64H78.0258V40.928ZM85.807 40.928H88.719V64H85.807V40.928Z" fill="#2E2B28"/>
<path d="M359.062 57.384V50.858H361.74V63H359.062V61.232C358.36 62.61 356.722 63.26 355.448 63.26C352.458 63.26 350.716 61.388 350.742 57.93V50.858H353.42V57.618C353.42 59.62 354.486 60.66 355.942 60.66C357.502 60.66 359.062 59.802 359.062 57.384ZM368.124 50.858V63H365.472V50.858H368.124ZM365.004 45.944C365.004 44.982 365.836 44.254 366.798 44.254C367.812 44.254 368.566 44.982 368.566 45.944C368.566 46.906 367.812 47.634 366.798 47.634C365.836 47.634 365.004 46.906 365.004 45.944ZM379.592 45.086H382.244L373.456 63H370.804L379.592 45.086ZM392.476 57.384V50.858H395.154V63H392.476V61.232C391.774 62.61 390.136 63.26 388.862 63.26C385.872 63.26 384.13 61.388 384.156 57.93V50.858H386.834V57.618C386.834 59.62 387.9 60.66 389.356 60.66C390.916 60.66 392.476 59.802 392.476 57.384ZM402.058 56.37L398.08 50.858H401.252L403.592 54.212L405.932 50.858H409.104L405.126 56.37L409.91 63H406.764L403.592 58.554L400.368 63H397.248L402.058 56.37Z" fill="#2E2B28"/>
<path d="M614.31 56.942C614.31 54.524 612.568 53.198 610.566 53.198C608.538 53.198 606.874 54.732 606.874 56.942C606.874 59.23 608.538 60.686 610.566 60.686C612.386 60.686 614.31 59.334 614.31 56.942ZM606.9 64.534C607.55 65.808 608.98 66.562 610.306 66.562C612.776 66.562 614.362 65.184 614.362 61.778V61.154C613.686 62.532 611.892 63.26 610.254 63.26C606.978 63.26 604.118 60.816 604.118 56.968C604.118 53.12 606.978 50.598 610.254 50.598C611.918 50.598 613.608 51.326 614.362 52.652V50.858H616.988V61.206C616.988 66.796 614.388 69.058 610.306 69.058C607.94 69.058 605.834 67.836 604.69 65.652C605.184 65.444 606.406 64.742 606.9 64.534ZM623.419 58.632V63H620.741V50.858H623.419V53.64C624.043 51.456 625.213 50.598 626.747 50.598C627.605 50.598 628.515 50.78 628.905 51.066L628.463 53.536C627.761 53.198 627.189 53.12 626.669 53.12C624.381 53.12 623.419 55.408 623.419 58.632ZM640.336 63V61.258C639.504 62.584 637.814 63.26 636.254 63.26C633.004 63.26 630.092 60.79 630.092 56.916C630.092 53.042 633.004 50.598 636.254 50.598C637.71 50.598 639.504 51.196 640.336 52.574V50.858H642.988V63H640.336ZM632.848 56.89C632.848 59.126 634.564 60.66 636.566 60.66C638.542 60.66 640.31 59.282 640.31 56.89C640.31 54.524 638.386 53.198 636.566 53.198C634.564 53.198 632.848 54.654 632.848 56.89ZM649.419 50.858V52.652C650.173 51.326 651.811 50.598 653.475 50.598C656.751 50.598 659.507 53.12 659.507 56.942C659.507 60.816 656.751 63.26 653.475 63.26C651.811 63.26 650.173 62.61 649.419 61.258V68.902H646.741V50.858H649.419ZM649.445 56.994C649.445 59.412 651.265 60.686 653.137 60.686C655.139 60.686 656.777 59.23 656.777 56.994C656.777 54.732 655.139 53.198 653.137 53.198C651.161 53.198 649.445 54.628 649.445 56.994ZM665.187 56.474V63H662.509V44.254H665.187V52.704C665.889 51.222 667.761 50.598 669.035 50.598C672.155 50.598 673.949 52.626 673.949 56.084V63H671.271V56.24C671.271 54.342 670.101 53.224 668.567 53.224C667.033 53.224 665.187 54.082 665.187 56.474ZM680.192 50.858V63H677.54V50.858H680.192ZM677.072 45.944C677.072 44.982 677.904 44.254 678.866 44.254C679.88 44.254 680.634 44.982 680.634 45.944C680.634 46.906 679.88 47.634 678.866 47.634C677.904 47.634 677.072 46.906 677.072 45.944ZM683.158 56.89C683.158 53.042 686.148 50.598 689.632 50.598C691.582 50.598 693.298 51.352 694.442 52.704L692.362 54.368C691.712 53.614 690.698 53.198 689.632 53.198C687.604 53.198 685.81 54.628 685.81 56.89C685.81 59.152 687.604 60.686 689.632 60.686C690.698 60.686 691.712 60.244 692.362 59.49L694.468 61.128C693.324 62.48 691.608 63.26 689.632 63.26C686.148 63.26 683.158 60.738 683.158 56.89ZM713.307 63V61.232C712.553 62.558 710.863 63.26 709.199 63.26C705.923 63.26 703.141 60.764 703.141 56.942C703.141 53.042 705.923 50.598 709.199 50.598C710.941 50.598 712.553 51.274 713.307 52.6V44.254H715.959V63H713.307ZM713.255 56.89C713.255 54.524 711.331 53.198 709.537 53.198C707.535 53.198 705.897 54.654 705.897 56.89C705.897 59.126 707.535 60.66 709.537 60.66C711.513 60.66 713.255 59.256 713.255 56.89ZM731.258 56.89C731.258 57.176 731.258 57.592 731.232 57.878H721.586C721.872 59.75 723.328 60.92 725.304 60.92C726.656 60.92 727.982 60.296 728.606 59.178L730.79 60.14C729.75 62.298 727.436 63.26 725.174 63.26C721.742 63.26 718.934 60.738 718.934 56.89C718.934 53.042 721.742 50.598 725.174 50.598C728.606 50.598 731.258 53.042 731.258 56.89ZM721.586 55.928H728.632C728.346 54.03 727.02 52.938 725.174 52.938C723.302 52.938 721.872 54.056 721.586 55.928ZM738.557 58.138L736.919 57.748C734.319 57.046 733.383 55.772 733.565 53.796C733.695 52.002 735.697 50.598 737.907 50.598C740.039 50.598 742.197 51.586 742.327 54.186H739.779C739.675 53.276 738.843 52.886 738.011 52.886C737.309 52.886 736.581 53.146 736.295 53.562C736.087 53.9 736.061 54.264 736.191 54.654C736.373 55.148 737.023 55.408 737.673 55.59L739.545 56.058C742.145 56.682 742.717 58.398 742.717 59.594C742.717 61.934 740.663 63.26 737.881 63.26C735.593 63.26 733.305 61.856 733.227 59.282H735.697C735.827 60.322 736.659 61.024 738.089 61.024C739.311 61.024 740.247 60.478 740.247 59.568C740.247 58.762 739.467 58.346 738.557 58.138ZM748.29 50.858V63H745.638V50.858H748.29ZM745.17 45.944C745.17 44.982 746.002 44.254 746.964 44.254C747.978 44.254 748.732 44.982 748.732 45.944C748.732 46.906 747.978 47.634 746.964 47.634C746.002 47.634 745.17 46.906 745.17 45.944ZM761.474 56.942C761.474 54.524 759.732 53.198 757.73 53.198C755.702 53.198 754.038 54.732 754.038 56.942C754.038 59.23 755.702 60.686 757.73 60.686C759.55 60.686 761.474 59.334 761.474 56.942ZM754.064 64.534C754.714 65.808 756.144 66.562 757.47 66.562C759.94 66.562 761.526 65.184 761.526 61.778V61.154C760.85 62.532 759.056 63.26 757.418 63.26C754.142 63.26 751.282 60.816 751.282 56.968C751.282 53.12 754.142 50.598 757.418 50.598C759.082 50.598 760.772 51.326 761.526 52.652V50.858H764.152V61.206C764.152 66.796 761.552 69.058 757.47 69.058C755.104 69.058 752.998 67.836 751.854 65.652C752.348 65.444 753.57 64.742 754.064 64.534ZM770.583 56.474V63H767.905V50.858H770.583V52.678C771.285 51.3 772.975 50.598 774.301 50.598C777.239 50.598 778.929 52.47 778.929 55.928V63H776.251V56.24C776.251 54.29 775.263 53.224 773.703 53.224C772.117 53.224 770.583 54.082 770.583 56.474Z" fill="#F9F7F2"/>
<path d="M869.284 63V61.232C868.53 62.558 866.84 63.26 865.176 63.26C861.9 63.26 859.118 60.764 859.118 56.942C859.118 53.042 861.9 50.598 865.176 50.598C866.918 50.598 868.53 51.274 869.284 52.6V44.254H871.936V63H869.284ZM869.232 56.89C869.232 54.524 867.308 53.198 865.514 53.198C863.512 53.198 861.874 54.654 861.874 56.89C861.874 59.126 863.512 60.66 865.514 60.66C867.49 60.66 869.232 59.256 869.232 56.89ZM887.234 56.89C887.234 57.176 887.234 57.592 887.208 57.878H877.562C877.848 59.75 879.304 60.92 881.28 60.92C882.632 60.92 883.958 60.296 884.582 59.178L886.766 60.14C885.726 62.298 883.412 63.26 881.15 63.26C877.718 63.26 874.91 60.738 874.91 56.89C874.91 53.042 877.718 50.598 881.15 50.598C884.582 50.598 887.234 53.042 887.234 56.89ZM877.562 55.928H884.608C884.322 54.03 882.996 52.938 881.15 52.938C879.278 52.938 877.848 54.056 877.562 55.928ZM893.394 63L888.324 50.858H891.158L894.642 59.594L898.074 50.858H900.934L895.864 63H893.394ZM914.428 56.89C914.428 57.176 914.428 57.592 914.402 57.878H904.756C905.042 59.75 906.498 60.92 908.474 60.92C909.826 60.92 911.152 60.296 911.776 59.178L913.96 60.14C912.92 62.298 910.606 63.26 908.344 63.26C904.912 63.26 902.104 60.738 902.104 56.89C902.104 53.042 904.912 50.598 908.344 50.598C911.776 50.598 914.428 53.042 914.428 56.89ZM904.756 55.928H911.802C911.516 54.03 910.19 52.938 908.344 52.938C906.472 52.938 905.042 54.056 904.756 55.928ZM917.255 63V44.254H919.933V63H917.255ZM929.217 60.66C931.245 60.66 932.909 59.178 932.909 56.89C932.909 54.68 931.245 53.224 929.217 53.224C927.215 53.224 925.551 54.68 925.551 56.89C925.551 59.178 927.215 60.66 929.217 60.66ZM929.217 63.26C925.785 63.26 922.899 60.738 922.899 56.89C922.899 53.042 925.785 50.598 929.217 50.598C932.675 50.598 935.587 53.042 935.587 56.89C935.587 60.738 932.675 63.26 929.217 63.26ZM941.236 50.858V52.652C941.99 51.326 943.628 50.598 945.292 50.598C948.568 50.598 951.324 53.12 951.324 56.942C951.324 60.816 948.568 63.26 945.292 63.26C943.628 63.26 941.99 62.61 941.236 61.258V68.902H938.558V50.858H941.236ZM941.262 56.994C941.262 59.412 943.082 60.686 944.954 60.686C946.956 60.686 948.594 59.23 948.594 56.994C948.594 54.732 946.956 53.198 944.954 53.198C942.978 53.198 941.262 54.628 941.262 56.994ZM968.157 53.224C966.389 53.224 965.219 54.498 965.219 56.474V63H962.541V56.188C962.515 54.316 961.527 53.224 960.071 53.224C958.511 53.224 957.003 54.082 957.003 56.474V63H954.325V50.858H957.003V52.678C957.835 51.014 959.837 50.598 960.825 50.598C962.775 50.598 963.945 51.456 964.647 53.016C965.765 50.91 967.637 50.598 968.729 50.598C971.745 50.598 973.409 52.548 973.409 56.006V63H970.731V56.24C970.731 54.342 969.717 53.224 968.157 53.224ZM988.568 56.89C988.568 57.176 988.568 57.592 988.542 57.878H978.896C979.182 59.75 980.638 60.92 982.614 60.92C983.966 60.92 985.292 60.296 985.916 59.178L988.1 60.14C987.06 62.298 984.746 63.26 982.484 63.26C979.052 63.26 976.244 60.738 976.244 56.89C976.244 53.042 979.052 50.598 982.484 50.598C985.916 50.598 988.568 53.042 988.568 56.89ZM978.896 55.928H985.942C985.656 54.03 984.33 52.938 982.484 52.938C980.612 52.938 979.182 54.056 978.896 55.928ZM994.073 56.474V63H991.395V50.858H994.073V52.678C994.775 51.3 996.465 50.598 997.791 50.598C1000.73 50.598 1002.42 52.47 1002.42 55.928V63H999.741V56.24C999.741 54.29 998.753 53.224 997.193 53.224C995.607 53.224 994.073 54.082 994.073 56.474ZM1009.69 46.256V50.858H1012.26V53.068H1009.69V63H1007.01V53.068H1004.82V50.858H1007.01V46.256H1009.69Z" fill="#F9F7F2"/>
</svg>
