<svg width="1240" height="1457" viewBox="0 0 1240 1457" fill="none" xmlns="http://www.w3.org/2000/svg">
<path d="M854 78C854 44.8629 880.863 18 914 18H1094C1127.14 18 1154 44.8629 1154 78V78H854V78Z" fill="#8183B5"/>
<path d="M596 78C596 44.8629 622.863 18 656 18H836C869.137 18 896 44.8629 896 78V78H596V78Z" fill="#9FA2F0"/>
<path d="M0 78C0 44.8629 26.8629 18 60 18H240C273.137 18 300 44.8629 300 78V78H0V78Z" fill="#F3D489"/>
<path d="M0 78H1190C1217.61 78 1240 100.386 1240 128V1896H0V78Z" fill="#C7C8FF"/>
<path d="M258 60C258 26.8629 284.863 0 318 0H568C601.137 0 628 26.8629 628 60V78H258V60Z" fill="#C7C8FF"/>
<path d="M64.704 58V56.272C63.96 57.52 62.328 58.24 60.768 58.24C57.696 58.24 55.08 55.936 55.08 52.384C55.08 48.808 57.696 46.552 60.768 46.552C62.328 46.552 63.936 47.2 64.704 48.472V46.792H66.864V58H64.704ZM64.68 52.36C64.68 49.96 62.784 48.688 60.96 48.688C58.944 48.688 57.312 50.152 57.312 52.36C57.312 54.568 58.944 56.104 60.96 56.104C62.952 56.104 64.68 54.736 64.68 52.36ZM70.5193 40.696H72.7033V58H70.5193V40.696ZM76.3553 40.696H78.5393V58H76.3553V40.696Z" fill="black"/>
<path d="M654.504 59.608C655.176 60.856 656.496 61.528 657.744 61.528C660.168 61.528 661.728 60.16 661.728 56.44C661.728 56.344 661.704 56.272 661.704 56.176C661.008 57.52 659.352 58.24 657.768 58.24C654.696 58.24 652.08 55.984 652.08 52.432C652.08 48.88 654.696 46.552 657.768 46.552C659.328 46.552 660.936 47.272 661.704 48.544V46.792H663.864V56.296C663.864 61.576 661.464 63.592 657.744 63.592C655.656 63.592 653.76 62.56 652.68 60.568C652.944 60.424 654.216 59.728 654.504 59.608ZM661.68 52.408C661.68 50.008 659.952 48.688 657.96 48.688C655.944 48.688 654.312 50.224 654.312 52.408C654.312 54.712 655.944 56.104 657.96 56.104C659.784 56.104 661.68 54.808 661.68 52.408ZM669.68 53.92V58H667.496V46.792H669.68V49.312C670.256 47.32 671.336 46.552 672.8 46.552C673.592 46.552 674.432 46.768 674.744 46.984L674.408 49.024C673.808 48.736 673.208 48.64 672.752 48.64C670.592 48.64 669.68 50.944 669.68 53.92ZM685.563 58V56.272C684.819 57.52 683.187 58.24 681.627 58.24C678.555 58.24 675.939 55.936 675.939 52.384C675.939 48.808 678.555 46.552 681.627 46.552C683.187 46.552 684.795 47.2 685.563 48.472V46.792H687.723V58H685.563ZM685.539 52.36C685.539 49.96 683.643 48.688 681.819 48.688C679.803 48.688 678.171 50.152 678.171 52.36C678.171 54.568 679.803 56.104 681.819 56.104C683.811 56.104 685.539 54.736 685.539 52.36ZM693.563 46.792V48.544C694.331 47.272 695.891 46.552 697.475 46.552C700.547 46.552 703.091 48.88 703.091 52.432C703.091 55.984 700.547 58.24 697.475 58.24C695.891 58.24 694.331 57.592 693.563 56.32V63.448H691.379V46.792H693.563ZM693.587 52.456C693.587 54.856 695.459 56.104 697.259 56.104C699.275 56.104 700.883 54.688 700.883 52.456C700.883 50.224 699.275 48.688 697.259 48.688C695.291 48.688 693.587 50.08 693.587 52.456ZM708.188 51.952V58H706.004V40.696H708.188V48.472C708.836 47.128 710.684 46.552 711.884 46.552C714.692 46.552 716.444 48.352 716.42 51.52V58H714.236V51.664C714.236 49.816 713.132 48.688 711.596 48.688C710.06 48.688 708.188 49.552 708.188 51.952ZM722.086 46.792V58H719.926V46.792H722.086ZM719.494 42.664C719.494 41.824 720.166 41.248 721.006 41.248C721.846 41.248 722.518 41.824 722.518 42.664C722.518 43.504 721.846 44.08 721.006 44.08C720.166 44.08 719.494 43.504 719.494 42.664ZM724.994 52.36C724.994 48.808 727.73 46.552 730.922 46.552C732.65 46.552 734.186 47.2 735.242 48.352L733.586 49.744C732.914 49.072 731.954 48.688 730.922 48.688C728.906 48.688 727.154 50.104 727.154 52.36C727.154 54.592 728.906 56.128 730.922 56.128C731.954 56.128 732.914 55.72 733.586 55.024L735.266 56.416C734.21 57.568 732.65 58.24 730.922 58.24C727.73 58.24 724.994 55.912 724.994 52.36ZM753.11 58V56.272C752.366 57.52 750.734 58.24 749.174 58.24C746.102 58.24 743.51 55.936 743.51 52.384C743.51 48.808 746.078 46.552 749.15 46.552C750.806 46.552 752.366 47.2 753.11 48.472V40.696H755.294V58H753.11ZM753.086 52.36C753.086 49.96 751.19 48.688 749.366 48.688C747.35 48.688 745.742 50.152 745.742 52.36C745.742 54.568 747.35 56.104 749.366 56.104C751.358 56.104 753.086 54.736 753.086 52.36ZM760.389 51.52H767.349C767.085 49.624 765.765 48.52 763.941 48.52C762.093 48.52 760.653 49.624 760.389 51.52ZM769.509 52.36C769.509 52.624 769.509 52.96 769.485 53.224H760.389C760.653 55.12 762.093 56.272 764.013 56.272C765.357 56.272 766.581 55.672 767.229 54.544C767.805 54.808 768.501 55 769.101 55.264C768.141 57.256 766.125 58.24 763.941 58.24C760.749 58.24 758.205 55.912 758.205 52.36C758.205 48.808 760.749 46.552 763.941 46.552C767.133 46.552 769.509 48.808 769.509 52.36ZM776.365 53.416L774.829 53.056C772.789 52.504 771.637 51.496 771.829 49.408C772.021 47.776 773.701 46.552 775.717 46.552C777.613 46.552 779.413 47.44 779.605 49.72H777.517C777.397 48.88 776.629 48.448 775.765 48.448C774.925 48.448 774.253 48.856 774.085 49.456C773.989 49.816 773.989 50.104 774.109 50.344C774.325 50.8 774.853 51.04 775.429 51.208L777.085 51.616C779.389 52.192 779.989 53.608 779.989 54.88C779.989 56.992 777.973 58.24 775.645 58.24C773.629 58.24 771.541 56.944 771.469 54.64H773.461C773.533 55.12 773.821 55.648 774.373 55.912C774.877 56.224 775.453 56.344 776.149 56.296C777.181 56.224 777.829 55.672 777.853 54.832C777.877 53.992 777.205 53.608 776.365 53.416ZM784.992 46.792V58H782.832V46.792H784.992ZM782.4 42.664C782.4 41.824 783.072 41.248 783.912 41.248C784.752 41.248 785.424 41.824 785.424 42.664C785.424 43.504 784.752 44.08 783.912 44.08C783.072 44.08 782.4 43.504 782.4 42.664ZM790.324 59.608C790.996 60.856 792.316 61.528 793.564 61.528C795.988 61.528 797.548 60.16 797.548 56.44C797.548 56.344 797.524 56.272 797.524 56.176C796.828 57.52 795.172 58.24 793.588 58.24C790.516 58.24 787.9 55.984 787.9 52.432C787.9 48.88 790.516 46.552 793.588 46.552C795.148 46.552 796.756 47.272 797.524 48.544V46.792H799.684V56.296C799.684 61.576 797.284 63.592 793.564 63.592C791.476 63.592 789.58 62.56 788.5 60.568C788.764 60.424 790.036 59.728 790.324 59.608ZM797.5 52.408C797.5 50.008 795.772 48.688 793.78 48.688C791.764 48.688 790.132 50.224 790.132 52.408C790.132 54.712 791.764 56.104 793.78 56.104C795.604 56.104 797.5 54.808 797.5 52.408ZM805.5 51.952V58H803.316V46.792H805.5V48.472C806.148 47.128 807.78 46.552 809.004 46.552C811.812 46.552 813.324 48.352 813.324 51.52V58H811.14V51.664C811.14 49.768 810.204 48.688 808.668 48.688C807.084 48.688 805.5 49.576 805.5 51.952Z" fill="#F9F7F2"/>
<path d="M913.68 58V56.272C912.936 57.52 911.304 58.24 909.744 58.24C906.672 58.24 904.08 55.936 904.08 52.384C904.08 48.808 906.648 46.552 909.72 46.552C911.376 46.552 912.936 47.2 913.68 48.472V40.696H915.864V58H913.68ZM913.656 52.36C913.656 49.96 911.76 48.688 909.936 48.688C907.92 48.688 906.312 50.152 906.312 52.36C906.312 54.568 907.92 56.104 909.936 56.104C911.928 56.104 913.656 54.736 913.656 52.36ZM920.959 51.52H927.919C927.655 49.624 926.335 48.52 924.511 48.52C922.663 48.52 921.223 49.624 920.959 51.52ZM930.079 52.36C930.079 52.624 930.079 52.96 930.055 53.224H920.959C921.223 55.12 922.663 56.272 924.583 56.272C925.927 56.272 927.151 55.672 927.799 54.544C928.375 54.808 929.071 55 929.671 55.264C928.711 57.256 926.695 58.24 924.511 58.24C921.319 58.24 918.775 55.912 918.775 52.36C918.775 48.808 921.319 46.552 924.511 46.552C927.703 46.552 930.079 48.808 930.079 52.36ZM931.228 46.792H933.532L936.94 55.216L940.324 46.792H942.652L937.972 58H937.996H935.884L931.228 46.792ZM946.061 51.52H953.021C952.757 49.624 951.437 48.52 949.613 48.52C947.765 48.52 946.325 49.624 946.061 51.52ZM955.181 52.36C955.181 52.624 955.181 52.96 955.157 53.224H946.061C946.325 55.12 947.765 56.272 949.685 56.272C951.029 56.272 952.253 55.672 952.901 54.544C953.477 54.808 954.173 55 954.773 55.264C953.813 57.256 951.797 58.24 949.613 58.24C946.421 58.24 943.877 55.912 943.877 52.36C943.877 48.808 946.421 46.552 949.613 46.552C952.805 46.552 955.181 48.808 955.181 52.36ZM957.957 40.696H960.141V58H957.957V40.696ZM968.905 58.24C965.713 58.24 963.049 55.912 963.049 52.36C963.049 48.808 965.713 46.552 968.905 46.552C972.097 46.552 974.785 48.808 974.785 52.36C974.785 55.912 972.097 58.24 968.905 58.24ZM968.905 56.128C970.897 56.128 972.601 54.664 972.601 52.36C972.601 50.104 970.897 48.688 968.905 48.688C966.865 48.688 965.209 50.104 965.209 52.36C965.209 54.664 966.865 56.128 968.905 56.128ZM979.875 46.792V48.544C980.643 47.272 982.203 46.552 983.787 46.552C986.859 46.552 989.403 48.88 989.403 52.432C989.403 55.984 986.859 58.24 983.787 58.24C982.203 58.24 980.643 57.592 979.875 56.32V63.448H977.691V46.792H979.875ZM979.899 52.456C979.899 54.856 981.771 56.104 983.571 56.104C985.587 56.104 987.195 54.688 987.195 52.456C987.195 50.224 985.587 48.688 983.571 48.688C981.603 48.688 979.899 50.08 979.899 52.456ZM1005.2 48.688C1003.36 48.688 1002.23 50.08 1002.23 51.952V58H1000.04V51.64C1000.04 49.792 999.084 48.688 997.62 48.688C996.06 48.688 994.5 49.6 994.5 51.952V58H992.316V46.792H994.5V48.472C995.076 47.224 996.684 46.672 997.596 46.6C998.028 46.576 998.436 46.6 998.82 46.672C1000.24 46.888 1001.22 47.632 1001.75 48.856C1002.78 46.864 1004.56 46.552 1005.64 46.552C1008.44 46.552 1009.96 48.352 1009.96 51.52V58H1007.77V51.664C1007.77 49.816 1006.84 48.688 1005.2 48.688ZM1014.9 51.52H1021.86C1021.59 49.624 1020.27 48.52 1018.45 48.52C1016.6 48.52 1015.16 49.624 1014.9 51.52ZM1024.02 52.36C1024.02 52.624 1024.02 52.96 1023.99 53.224H1014.9C1015.16 55.12 1016.6 56.272 1018.52 56.272C1019.86 56.272 1021.09 55.672 1021.74 54.544C1022.31 54.808 1023.01 55 1023.61 55.264C1022.65 57.256 1020.63 58.24 1018.45 58.24C1015.26 58.24 1012.71 55.912 1012.71 52.36C1012.71 48.808 1015.26 46.552 1018.45 46.552C1021.64 46.552 1024.02 48.808 1024.02 52.36ZM1028.98 51.952V58H1026.79V46.792H1028.98V48.472C1029.62 47.128 1031.26 46.552 1032.48 46.552C1035.29 46.552 1036.8 48.352 1036.8 51.52V58H1034.62V51.664C1034.62 49.768 1033.68 48.688 1032.14 48.688C1030.56 48.688 1028.98 49.576 1028.98 51.952ZM1043.34 46.792H1045.72V48.64H1043.34V58H1041.16V48.64H1039.14V46.792H1041.16V42.568H1043.34V46.792Z" fill="#F9F7F2"/>
<path d="M332.64 53.12V45.056H335.552V60H332.64V57.76C331.712 59.552 329.632 60.32 328 60.32C324.256 60.32 322.208 57.92 322.24 53.696V45.056H325.152V53.504C325.152 56.032 326.368 57.472 328.416 57.472C330.528 57.472 332.64 56.32 332.64 53.12ZM343.281 45.056V60H340.401V45.056H343.281ZM339.825 39.552C339.825 38.432 340.721 37.664 341.841 37.664C342.961 37.664 343.857 38.432 343.857 39.552C343.857 40.672 342.961 41.44 341.841 41.44C340.721 41.44 339.825 40.672 339.825 39.552ZM360.759 37.952L349.879 60H346.711L357.591 37.952H360.759ZM373.609 53.12V45.056H376.521V60H373.609V57.76C372.681 59.552 370.601 60.32 368.969 60.32C365.225 60.32 363.177 57.92 363.209 53.696V45.056H366.121V53.504C366.121 56.032 367.337 57.472 369.385 57.472C371.497 57.472 373.609 56.32 373.609 53.12ZM380.378 45.056H383.866L386.938 49.44L390.042 45.056H393.53L388.634 51.808L394.554 60H391.098L386.938 54.208L382.746 60H379.322L385.242 51.808L380.378 45.056Z" fill="black"/>
</svg>
