<svg width="1240" height="1103" viewBox="0 0 1240 1103" fill="none" xmlns="http://www.w3.org/2000/svg">
<path d="M0 78C0 44.8629 26.8629 18 60 18H240C273.137 18 300 44.8629 300 78V78H0V78Z" fill="#F3D489"/>
<path d="M237 78C237 44.8629 263.863 18 297 18H477C510.137 18 537 44.8629 537 78V78H237V78Z" fill="#C7C8FF"/>
<path d="M794 78C794 44.8629 820.863 18 854 18H1034C1067.14 18 1094 44.8629 1094 78V78H794V78Z" fill="#8183B5"/>
<path d="M0 77H1190C1217.61 77 1240 99.3858 1240 127V1727H0V77Z" fill="#9FA2F0"/>
<path d="M460 60C460 26.8629 486.863 0 520 0H770C803.137 0 830 26.8629 830 60V78H460V60Z" fill="#9FA2F0"/>
<path d="M64.704 58V56.272C63.96 57.52 62.328 58.24 60.768 58.24C57.696 58.24 55.08 55.936 55.08 52.384C55.08 48.808 57.696 46.552 60.768 46.552C62.328 46.552 63.936 47.2 64.704 48.472V46.792H66.864V58H64.704ZM64.68 52.36C64.68 49.96 62.784 48.688 60.96 48.688C58.944 48.688 57.312 50.152 57.312 52.36C57.312 54.568 58.944 56.104 60.96 56.104C62.952 56.104 64.68 54.736 64.68 52.36ZM70.5193 40.696H72.7033V58H70.5193V40.696ZM76.3553 40.696H78.5393V58H76.3553V40.696Z" fill="black"/>
<path d="M314.062 57.384V50.858H316.74V63H314.062V61.232C313.36 62.61 311.722 63.26 310.448 63.26C307.458 63.26 305.716 61.388 305.742 57.93V50.858H308.42V57.618C308.42 59.62 309.486 60.66 310.942 60.66C312.502 60.66 314.062 59.802 314.062 57.384ZM323.124 50.858V63H320.472V50.858H323.124ZM320.004 45.944C320.004 44.982 320.836 44.254 321.798 44.254C322.812 44.254 323.566 44.982 323.566 45.944C323.566 46.906 322.812 47.634 321.798 47.634C320.836 47.634 320.004 46.906 320.004 45.944ZM334.592 45.086H337.244L328.456 63H325.804L334.592 45.086ZM347.476 57.384V50.858H350.154V63H347.476V61.232C346.774 62.61 345.136 63.26 343.862 63.26C340.872 63.26 339.13 61.388 339.156 57.93V50.858H341.834V57.618C341.834 59.62 342.9 60.66 344.356 60.66C345.916 60.66 347.476 59.802 347.476 57.384ZM357.058 56.37L353.08 50.858H356.252L358.592 54.212L360.932 50.858H364.104L360.126 56.37L364.91 63H361.764L358.592 58.554L355.368 63H352.248L357.058 56.37Z" fill="black"/>
<path d="M853.68 58V56.272C852.936 57.52 851.304 58.24 849.744 58.24C846.672 58.24 844.08 55.936 844.08 52.384C844.08 48.808 846.648 46.552 849.72 46.552C851.376 46.552 852.936 47.2 853.68 48.472V40.696H855.864V58H853.68ZM853.656 52.36C853.656 49.96 851.76 48.688 849.936 48.688C847.92 48.688 846.312 50.152 846.312 52.36C846.312 54.568 847.92 56.104 849.936 56.104C851.928 56.104 853.656 54.736 853.656 52.36ZM860.959 51.52H867.919C867.655 49.624 866.335 48.52 864.511 48.52C862.663 48.52 861.223 49.624 860.959 51.52ZM870.079 52.36C870.079 52.624 870.079 52.96 870.055 53.224H860.959C861.223 55.12 862.663 56.272 864.583 56.272C865.927 56.272 867.151 55.672 867.799 54.544C868.375 54.808 869.071 55 869.671 55.264C868.711 57.256 866.695 58.24 864.511 58.24C861.319 58.24 858.775 55.912 858.775 52.36C858.775 48.808 861.319 46.552 864.511 46.552C867.703 46.552 870.079 48.808 870.079 52.36ZM871.228 46.792H873.532L876.94 55.216L880.324 46.792H882.652L877.972 58H877.996H875.884L871.228 46.792ZM886.061 51.52H893.021C892.757 49.624 891.437 48.52 889.613 48.52C887.765 48.52 886.325 49.624 886.061 51.52ZM895.181 52.36C895.181 52.624 895.181 52.96 895.157 53.224H886.061C886.325 55.12 887.765 56.272 889.685 56.272C891.029 56.272 892.253 55.672 892.901 54.544C893.477 54.808 894.173 55 894.773 55.264C893.813 57.256 891.797 58.24 889.613 58.24C886.421 58.24 883.877 55.912 883.877 52.36C883.877 48.808 886.421 46.552 889.613 46.552C892.805 46.552 895.181 48.808 895.181 52.36ZM897.957 40.696H900.141V58H897.957V40.696ZM908.905 58.24C905.713 58.24 903.049 55.912 903.049 52.36C903.049 48.808 905.713 46.552 908.905 46.552C912.097 46.552 914.785 48.808 914.785 52.36C914.785 55.912 912.097 58.24 908.905 58.24ZM908.905 56.128C910.897 56.128 912.601 54.664 912.601 52.36C912.601 50.104 910.897 48.688 908.905 48.688C906.865 48.688 905.209 50.104 905.209 52.36C905.209 54.664 906.865 56.128 908.905 56.128ZM919.875 46.792V48.544C920.643 47.272 922.203 46.552 923.787 46.552C926.859 46.552 929.403 48.88 929.403 52.432C929.403 55.984 926.859 58.24 923.787 58.24C922.203 58.24 920.643 57.592 919.875 56.32V63.448H917.691V46.792H919.875ZM919.899 52.456C919.899 54.856 921.771 56.104 923.571 56.104C925.587 56.104 927.195 54.688 927.195 52.456C927.195 50.224 925.587 48.688 923.571 48.688C921.603 48.688 919.899 50.08 919.899 52.456ZM945.204 48.688C943.356 48.688 942.228 50.08 942.228 51.952V58H940.044V51.64C940.044 49.792 939.084 48.688 937.62 48.688C936.06 48.688 934.5 49.6 934.5 51.952V58H932.316V46.792H934.5V48.472C935.076 47.224 936.684 46.672 937.596 46.6C938.028 46.576 938.436 46.6 938.82 46.672C940.236 46.888 941.22 47.632 941.748 48.856C942.78 46.864 944.556 46.552 945.636 46.552C948.444 46.552 949.956 48.352 949.956 51.52V58H947.772V51.664C947.772 49.816 946.836 48.688 945.204 48.688ZM954.897 51.52H961.857C961.593 49.624 960.273 48.52 958.449 48.52C956.601 48.52 955.161 49.624 954.897 51.52ZM964.017 52.36C964.017 52.624 964.017 52.96 963.993 53.224H954.897C955.161 55.12 956.601 56.272 958.521 56.272C959.865 56.272 961.089 55.672 961.737 54.544C962.313 54.808 963.009 55 963.609 55.264C962.649 57.256 960.633 58.24 958.449 58.24C955.257 58.24 952.713 55.912 952.713 52.36C952.713 48.808 955.257 46.552 958.449 46.552C961.641 46.552 964.017 48.808 964.017 52.36ZM968.977 51.952V58H966.793V46.792H968.977V48.472C969.625 47.128 971.257 46.552 972.481 46.552C975.289 46.552 976.801 48.352 976.801 51.52V58H974.617V51.664C974.617 49.768 973.681 48.688 972.145 48.688C970.561 48.688 968.977 49.576 968.977 51.952ZM983.34 46.792H985.716V48.64H983.34V58H981.156V48.64H979.14V46.792H981.156V42.568H983.34V46.792Z" fill="#F9F7F2"/>
<path d="M499.672 57.144C500.568 58.808 502.328 59.704 503.992 59.704C507.224 59.704 509.304 57.88 509.304 52.92C509.304 52.792 509.272 52.696 509.272 52.568C508.344 54.36 506.136 55.32 504.024 55.32C499.928 55.32 496.44 52.312 496.44 47.576C496.44 42.84 499.928 39.736 504.024 39.736C506.104 39.736 508.248 40.696 509.272 42.392V40.056H512.152V52.728C512.152 59.768 508.952 62.456 503.992 62.456C501.208 62.456 498.68 61.08 497.24 58.424C497.592 58.232 499.288 57.304 499.672 57.144ZM509.24 47.544C509.24 44.344 506.936 42.584 504.28 42.584C501.592 42.584 499.416 44.632 499.416 47.544C499.416 50.616 501.592 52.472 504.28 52.472C506.712 52.472 509.24 50.744 509.24 47.544ZM519.907 49.56V55H516.995V40.056H519.907V43.416C520.675 40.76 522.115 39.736 524.067 39.736C525.123 39.736 526.243 40.024 526.659 40.312L526.211 43.032C525.411 42.648 524.611 42.52 524.003 42.52C521.123 42.52 519.907 45.592 519.907 49.56ZM541.085 55V52.696C540.093 54.36 537.917 55.32 535.837 55.32C531.741 55.32 528.253 52.248 528.253 47.512C528.253 42.744 531.741 39.736 535.837 39.736C537.917 39.736 540.061 40.6 541.085 42.296V40.056H543.965V55H541.085ZM541.053 47.48C541.053 44.28 538.525 42.584 536.093 42.584C533.405 42.584 531.229 44.536 531.229 47.48C531.229 50.424 533.405 52.472 536.093 52.472C538.749 52.472 541.053 50.648 541.053 47.48ZM551.75 40.056V42.392C552.774 40.696 554.854 39.736 556.966 39.736C561.062 39.736 564.454 42.84 564.454 47.576C564.454 52.312 561.062 55.32 556.966 55.32C554.854 55.32 552.774 54.456 551.75 52.76V62.264H548.838V40.056H551.75ZM551.782 47.608C551.782 50.808 554.278 52.472 556.678 52.472C559.366 52.472 561.51 50.584 561.51 47.608C561.51 44.632 559.366 42.584 556.678 42.584C554.054 42.584 551.782 44.44 551.782 47.608ZM571.25 46.936V55H568.338V31.928H571.25V42.296C572.114 40.504 574.578 39.736 576.178 39.736C579.922 39.736 582.258 42.136 582.226 46.36V55H579.314V46.552C579.314 44.088 577.842 42.584 575.794 42.584C573.746 42.584 571.25 43.736 571.25 46.936ZM589.781 40.056V55H586.901V40.056H589.781ZM586.325 34.552C586.325 33.432 587.221 32.664 588.341 32.664C589.461 32.664 590.357 33.432 590.357 34.552C590.357 35.672 589.461 36.44 588.341 36.44C587.221 36.44 586.325 35.672 586.325 34.552ZM593.659 47.48C593.659 42.744 597.307 39.736 601.563 39.736C603.867 39.736 605.915 40.6 607.323 42.136L605.115 43.992C604.219 43.096 602.939 42.584 601.563 42.584C598.875 42.584 596.539 44.472 596.539 47.48C596.539 50.456 598.875 52.504 601.563 52.504C602.939 52.504 604.219 51.96 605.115 51.032L607.355 52.888C605.947 54.424 603.867 55.32 601.563 55.32C597.307 55.32 593.659 52.216 593.659 47.48ZM631.146 55V52.696C630.154 54.36 627.978 55.32 625.898 55.32C621.802 55.32 618.346 52.248 618.346 47.512C618.346 42.744 621.77 39.736 625.866 39.736C628.074 39.736 630.154 40.6 631.146 42.296V31.928H634.058V55H631.146ZM631.114 47.48C631.114 44.28 628.586 42.584 626.154 42.584C623.466 42.584 621.322 44.536 621.322 47.48C621.322 50.424 623.466 52.472 626.154 52.472C628.81 52.472 631.114 50.648 631.114 47.48ZM640.852 46.36H650.132C649.78 43.832 648.02 42.36 645.588 42.36C643.124 42.36 641.204 43.832 640.852 46.36ZM653.012 47.48C653.012 47.832 653.012 48.28 652.98 48.632H640.852C641.204 51.16 643.124 52.696 645.684 52.696C647.476 52.696 649.108 51.896 649.972 50.392C650.74 50.744 651.668 51 652.468 51.352C651.188 54.008 648.5 55.32 645.588 55.32C641.332 55.32 637.94 52.216 637.94 47.48C637.94 42.744 641.332 39.736 645.588 39.736C649.844 39.736 653.012 42.744 653.012 47.48ZM662.153 48.888L660.105 48.408C657.385 47.672 655.849 46.328 656.105 43.544C656.361 41.368 658.601 39.736 661.289 39.736C663.817 39.736 666.217 40.92 666.473 43.96H663.689C663.529 42.84 662.505 42.264 661.353 42.264C660.233 42.264 659.337 42.808 659.113 43.608C658.985 44.088 658.985 44.472 659.145 44.792C659.433 45.4 660.137 45.72 660.905 45.944L663.113 46.488C666.185 47.256 666.985 49.144 666.985 50.84C666.985 53.656 664.297 55.32 661.193 55.32C658.505 55.32 655.721 53.592 655.625 50.52H658.281C658.377 51.16 658.761 51.864 659.497 52.216C660.169 52.632 660.937 52.792 661.865 52.728C663.241 52.632 664.105 51.896 664.137 50.776C664.169 49.656 663.273 49.144 662.153 48.888ZM673.656 40.056V55H670.776V40.056H673.656ZM670.2 34.552C670.2 33.432 671.096 32.664 672.216 32.664C673.336 32.664 674.232 33.432 674.232 34.552C674.232 35.672 673.336 36.44 672.216 36.44C671.096 36.44 670.2 35.672 670.2 34.552ZM680.766 57.144C681.662 58.808 683.422 59.704 685.086 59.704C688.318 59.704 690.398 57.88 690.398 52.92C690.398 52.792 690.366 52.696 690.366 52.568C689.438 54.36 687.23 55.32 685.118 55.32C681.022 55.32 677.534 52.312 677.534 47.576C677.534 42.84 681.022 39.736 685.118 39.736C687.198 39.736 689.342 40.696 690.366 42.392V40.056H693.246V52.728C693.246 59.768 690.046 62.456 685.086 62.456C682.302 62.456 679.774 61.08 678.334 58.424C678.686 58.232 680.382 57.304 680.766 57.144ZM690.334 47.544C690.334 44.344 688.03 42.584 685.374 42.584C682.686 42.584 680.51 44.632 680.51 47.544C680.51 50.616 682.686 52.472 685.374 52.472C687.806 52.472 690.334 50.744 690.334 47.544ZM701 46.936V55H698.088V40.056H701V42.296C701.864 40.504 704.04 39.736 705.672 39.736C709.416 39.736 711.432 42.136 711.432 46.36V55H708.52V46.552C708.52 44.024 707.272 42.584 705.224 42.584C703.112 42.584 701 43.768 701 46.936Z" fill="#F9F7F2"/>
</svg>
