<?xml version="1.0" encoding="UTF-8"?>
<svg id="Layer_2" data-name="Layer 2" xmlns="http://www.w3.org/2000/svg" viewBox="0 0 36.69 24.96">
  <defs>
    <style>
      .cls-1 {
        fill: #8d93d9;
      }
    </style>
  </defs>
  <g id="Working_Layer" data-name="Working Layer">
    <g id="Logo_3_-_multi_colour" data-name="Logo 3 - multi colour">
      <path class="cls-1" d="M16.95,8.44C16.95,3.28,13.08,0,8.48,0S0,3.28,0,8.44s3.87,8.51,8.48,8.51,8.48-3.38,8.48-8.51ZM4.22,8.44c0-2.62,1.88-4.26,4.26-4.26.19,0,.38.03.56.05-.99,1.01-1.65,2.7-1.65,4.63,0,1.54.42,2.93,1.09,3.94,0,0,0,0,0,0-2.37,0-4.26-1.71-4.26-4.36Z"/>
      <path class="cls-1" d="M28.22,0c-4.6,0-8.48,3.28-8.48,8.44s3.87,8.51,8.48,8.51,8.48-3.38,8.48-8.51S32.82,0,28.22,0ZM23.96,8.44c0-2.62,1.88-4.26,4.26-4.26.24,0,.47.03.7.06-.99,1.01-1.64,2.7-1.64,4.61,0,1.53.41,2.92,1.08,3.93-.05,0-.1.01-.15.01-2.37,0-4.26-1.71-4.26-4.36Z"/>
      <path class="cls-1" d="M18.06,21.33c-4.31,0-6.88-1.86-8.1-3.07-.56-.56-1.44-.64-2.11-.22l-.16.1c-.93.58-1.09,1.88-.32,2.66,1.72,1.71,5.14,4.16,10.68,4.16s9.1-2.17,10.97-3.68c.84-.68.84-1.97,0-2.66l-.15-.12c-.62-.51-1.52-.53-2.15-.03-1.39,1.12-4.25,2.85-8.67,2.85Z"/>
    </g>
  </g>
</svg>