<?xml version="1.0" encoding="UTF-8"?>
<svg id="Layer_2" data-name="Layer 2" xmlns="http://www.w3.org/2000/svg" viewBox="0 0 74.12 103.26">
  <defs>
    <style>
      .cls-1 {
        fill: #2e2b28;
      }

      .cls-2 {
        fill: #b1b0ae;
      }

      .cls-3 {
        fill: #8d93d9;
      }
    </style>
  </defs>
  <g id="Working_Layer" data-name="Working Layer">
    <g id="Logo_3_-_multi_colour" data-name="Logo 3 - multi colour">
      <path class="cls-1" d="M6.59,0c-1.5,0-2.72,1.12-2.72,2.55,0,1.5,1.22,2.58,2.72,2.58s2.72-1.08,2.72-2.58-1.19-2.55-2.72-2.55Z"/>
      <path class="cls-1" d="M8.76,26.23V8.86h-4.29v17.44c0,1.4-.35,3.07-2.41,3.07H0v3.91h2.69c4.53,0,6.07-2.83,6.07-7.05Z"/>
      <path class="cls-1" d="M15.7,0c-1.5,0-2.76,1.12-2.76,2.55,0,1.5,1.26,2.58,2.76,2.58s2.69-1.08,2.69-2.58-1.19-2.55-2.69-2.55Z"/>
      <rect class="cls-1" x="13.57" y="8.86" width="4.22" height="16.29"/>
      <path class="cls-1" d="M30.42,15.59l-2.72-.66c-.94-.24-1.71-.7-1.71-1.36,0-1.22.98-1.61,2.06-1.61.98,0,2.09.45,2.2,1.67h4.05c-.17-3.73-3.24-5.13-6.35-5.13s-6,2.2-6,4.85c0,1.88.38,3.87,4.6,4.99l2.23.56c1.22.28,1.81.7,1.78,1.53,0,.94-.91,1.61-2.13,1.64-1.57.11-2.9-.91-3-2.06h-3.98c.1,3.49,3.35,5.48,6.56,5.48,3.38,0,6.66-1.67,6.66-5.02,0-1.33-.49-3.84-4.26-4.88Z"/>
      <path class="cls-1" d="M45.9,25.46c4.6,0,8.48-3.38,8.48-8.51s-3.87-8.44-8.48-8.44-8.48,3.28-8.48,8.44,3.87,8.51,8.48,8.51ZM45.9,12.7c2.37,0,4.26,1.64,4.26,4.26s-1.88,4.36-4.26,4.36-4.26-1.71-4.26-4.36,1.88-4.26,4.26-4.26Z"/>
      <path class="cls-1" d="M65.64,25.46c4.6,0,8.48-3.38,8.48-8.51s-3.87-8.44-8.48-8.44-8.48,3.28-8.48,8.44,3.87,8.51,8.48,8.51ZM65.64,12.7c2.37,0,4.26,1.64,4.26,4.26s-1.88,4.36-4.26,4.36-4.26-1.71-4.26-4.36,1.88-4.26,4.26-4.26Z"/>
      <path class="cls-2" d="M8.76,61.13v-17.37h-4.29v17.44c0,1.4-.35,3.07-2.41,3.07H0v3.91h2.69c4.53,0,6.07-2.83,6.07-7.05Z"/>
      <path class="cls-2" d="M6.59,34.89c-1.5,0-2.72,1.12-2.72,2.55,0,1.5,1.22,2.58,2.72,2.58s2.72-1.08,2.72-2.58-1.19-2.55-2.72-2.55Z"/>
      <path class="cls-1" d="M15.7,34.89c-1.5,0-2.76,1.12-2.76,2.55,0,1.5,1.26,2.58,2.76,2.58s2.69-1.08,2.69-2.58-1.19-2.55-2.69-2.55Z"/>
      <rect class="cls-1" x="13.57" y="43.76" width="4.22" height="16.29"/>
      <path class="cls-1" d="M30.42,50.49l-2.72-.66c-.94-.24-1.71-.7-1.71-1.36,0-1.22.98-1.61,2.06-1.61.98,0,2.09.45,2.2,1.67h4.05c-.17-3.73-3.24-5.13-6.35-5.13s-6,2.2-6,4.85c0,1.88.38,3.87,4.6,4.99l2.23.56c1.22.28,1.81.7,1.78,1.53,0,.94-.91,1.61-2.13,1.64-1.57.1-2.9-.91-3-2.06h-3.98c.1,3.49,3.35,5.48,6.56,5.48,3.38,0,6.66-1.67,6.66-5.02,0-1.33-.49-3.84-4.26-4.88Z"/>
      <path class="cls-2" d="M45.9,60.36c4.6,0,8.48-3.38,8.48-8.51s-3.87-8.44-8.48-8.44-8.48,3.28-8.48,8.44,3.87,8.51,8.48,8.51ZM45.9,47.59c2.37,0,4.26,1.64,4.26,4.26s-1.88,4.36-4.26,4.36-4.26-1.71-4.26-4.36,1.88-4.26,4.26-4.26Z"/>
      <path class="cls-2" d="M65.64,43.41c-4.6,0-8.48,3.28-8.48,8.44s3.87,8.51,8.48,8.51,8.48-3.38,8.48-8.51-3.87-8.44-8.48-8.44ZM65.64,56.21c-2.37,0-4.26-1.71-4.26-4.36s1.88-4.26,4.26-4.26,4.26,1.64,4.26,4.26-1.88,4.36-4.26,4.36Z"/>
      <path class="cls-2" d="M4.47,96.09c0,1.4-.35,3.07-2.41,3.07H0v3.91h2.69c4.53,0,6.07-2.83,6.07-7.05v-17.37h-4.29v17.44Z"/>
      <path class="cls-2" d="M6.59,69.79c-1.5,0-2.72,1.12-2.72,2.55,0,1.5,1.22,2.58,2.72,2.58s2.72-1.08,2.72-2.58-1.19-2.55-2.72-2.55Z"/>
      <path class="cls-2" d="M15.7,69.79c-1.5,0-2.76,1.12-2.76,2.55,0,1.5,1.26,2.58,2.76,2.58s2.69-1.08,2.69-2.58-1.19-2.55-2.69-2.55Z"/>
      <rect class="cls-2" x="13.57" y="78.65" width="4.22" height="16.29"/>
      <path class="cls-2" d="M30.42,85.38l-2.72-.66c-.94-.24-1.71-.7-1.71-1.36,0-1.22.98-1.61,2.06-1.61.98,0,2.09.45,2.2,1.67h4.05c-.17-3.73-3.24-5.13-6.35-5.13s-6,2.2-6,4.85c0,1.88.38,3.87,4.6,4.99l2.23.56c1.22.28,1.81.7,1.78,1.53,0,.94-.91,1.61-2.13,1.64-1.57.11-2.9-.91-3-2.06h-3.98c.1,3.49,3.35,5.48,6.56,5.48,3.38,0,6.66-1.67,6.66-5.02,0-1.33-.49-3.84-4.26-4.88Z"/>
      <path class="cls-3" d="M54.38,86.74c0-5.16-3.87-8.44-8.48-8.44s-8.48,3.28-8.48,8.44,3.87,8.51,8.48,8.51,8.48-3.38,8.48-8.51ZM41.65,86.74c0-2.62,1.88-4.26,4.26-4.26.19,0,.38.03.56.05-.99,1.01-1.65,2.7-1.65,4.63,0,1.54.42,2.93,1.09,3.94,0,0,0,0,0,0-2.37,0-4.26-1.71-4.26-4.36Z"/>
      <path class="cls-3" d="M65.64,78.3c-4.6,0-8.48,3.28-8.48,8.44s3.87,8.51,8.48,8.51,8.48-3.38,8.48-8.51-3.87-8.44-8.48-8.44ZM61.39,86.74c0-2.62,1.88-4.26,4.26-4.26.24,0,.47.03.7.06-.99,1.01-1.64,2.7-1.64,4.61,0,1.53.41,2.92,1.08,3.93-.05,0-.1.01-.15.01-2.37,0-4.26-1.71-4.26-4.36Z"/>
      <path class="cls-3" d="M55.48,99.63c-4.31,0-6.88-1.86-8.1-3.07-.56-.56-1.44-.64-2.11-.22l-.16.1c-.93.58-1.09,1.88-.32,2.66,1.72,1.71,5.14,4.16,10.68,4.16s9.1-2.17,10.97-3.68c.84-.68.84-1.97,0-2.66l-.15-.12c-.62-.51-1.52-.53-2.15-.03-1.39,1.12-4.25,2.85-8.67,2.85Z"/>
    </g>
  </g>
</svg>